@startuml 
 !theme crt-amber 
entity users { 
{field}* id INT << PK >> << unique >> 
{field}* username VARCHAR(50) 
{field}* email VARCHAR(100) << unique >>  
{field}* password VARCHAR(100) 

 warnings: 
} 
 
 
entity posts { 
{field}* id INT << PK >> << unique >> 
{field}user_id INT 
{field}* title VARCHAR(100) 
{field}content TEXT 
{field}created_at TIMESTAMP << default >>  << current_timestamp >>  
{method} user_id INT <<FK>> 

 warnings: 
} 
 
posts }o..|| users 
 
entity comments { 
{field}* id INT << PK >> << unique >> 
{field}post_id INT 
{field}user_id INT 
{field}* content TEXT 
{field}created_at TIMESTAMP << default >>  << current_timestamp >>  
{method} post_id INT <<FK>> 
{method} user_id INT <<FK>> 

 warnings: 
} 
 
comments }o..|| posts 
comments }o..|| users 
 
entity repeated { 
{field}* id INT << PK >> << unique >> 
{field}bookname VARCHAR(100) 
{field}bookname TEXT 
{field}author INT 

 warnings: 
Possible presence of repeated columns 
} 
 
 
entity noprimkey { 
{field}id INT 
{field}listingname VARCHAR(100) 
{field}prices INT 

 warnings: 
Posible non atomic values stored on column prices 
No primary key defined. 
} 
 
 
entity noforekey { 
{field}* id INT << PK >> << unique >> 
{field}role VARCHAR(100) 
{field}pay INT 

 warnings: 
Foreign key card_id not defined in other tables. 
Foreign key card_id not in defined columns. 
} 
 
 
entity recent_posts << view >> { 
{field} id INT 
{field} title VARCHAR(100) 
{field} created_at TIMESTAMP 
{method} created_at>=NOW()-INTERVAL'7days' 
} 
 
 recent_posts --|> posts 


 package info { 
entity tables{ 
 {field} count:6
}
entity views{ 
 {field} count:1
}
}

 @enduml